# xmcd
#
# Track frame offsets: 
#        150
#        10563
#        26848
#        41815
#        57370
#        70650
#        84675
#        97118
#        107758
#        122613
#        133550
#
# Disc length: 2561 seconds
#
# Revision: 0
# Processed by: cddbd v1.5.2PL0 Copyright (c) Steve Scherf et al.
# Submitted via: ExactAudioCopy v0.99pb5
#
DISCID=9009ff0b
DTITLE=Wendy Bagwell and The Sunliters - Spread The Word
DYEAR=1992
DGENRE=Comedy
TTITLE0=Spread The Word Around
TTITLE1=The Blood Runs Deep
TTITLE2=In Spite Of Yourself
TTITLE3=Borrowed
TTITLE4=What A Little Love Can Do
TTITLE5=Bring Before My Face A Picture
TTITLE6=Wandering Soul
TTITLE7=Pour It On
TTITLE8=Goodnight Or Goodbye
TTITLE9=Come On Home To Jesus
TTITLE10=Me, Ole' Ronnie And The Monkey
EXTD=
EXTT0=
EXTT1=
EXTT2=
EXTT3=
EXTT4=
EXTT5=
EXTT6=
EXTT7=
EXTT8=
EXTT9=
EXTT10=
PLAYORDER=
